<svg width="76" height="76" viewBox="0 0 76 76" fill="none" xmlns="http://www.w3.org/2000/svg">
<path d="M76 38C76 17.0132 58.9866 0 38 0C17.0132 0 0 17.0132 0 38C0 58.9866 17.0132 76 38 76C58.9866 76 76 58.9866 76 38Z" fill="#5096FF"/>
<path d="M40.6674 17.1H35.3307C34.8139 17.0991 34.3024 17.1921 33.8278 17.373C33.3531 17.554 32.9253 17.8191 32.5707 18.1521C32.2162 18.485 31.9426 18.8788 31.7663 19.3091C31.5899 19.7395 31.5147 20.1972 31.5459 20.6542L33.211 45.6H42.749L44.4522 20.6542C44.4833 20.1972 44.4081 19.7395 44.2318 19.3091C44.0558 18.8788 43.7819 18.485 43.4273 18.1521C43.0728 17.8191 42.6449 17.554 42.1703 17.373C41.6957 17.1921 41.1842 17.0991 40.6674 17.1Z" fill="white"/>
<path d="M38 62.1697C41.148 62.1697 43.7 59.6176 43.7 56.4696C43.7 53.3213 41.148 50.7697 38 50.7697C34.8521 50.7697 32.3 53.3213 32.3 56.4696C32.3 59.6176 34.8521 62.1697 38 62.1697Z" fill="white"/>
</svg>
