<svg width="536" height="88" viewBox="0 0 536 88" fill="none" xmlns="http://www.w3.org/2000/svg">
<path d="M177.734 25.7374C179.695 30.1266 175.814 34.4321 171.007 34.4321C168.006 34.4321 165.635 32.1015 164.175 29.4801C163.372 28.0153 162.34 26.769 161.08 25.7414C159.821 24.7138 158.366 23.9268 156.715 23.3802C155.086 22.8337 153.316 22.5604 151.405 22.5604C147.952 22.5604 144.944 23.424 142.381 25.1511C139.818 26.8565 137.831 29.3489 136.419 32.6284C135.007 35.886 134.302 39.8432 134.302 44.5C134.302 49.288 135.007 53.3109 136.419 56.5685C137.853 59.8261 139.851 62.2857 142.413 63.9473C144.976 65.6088 147.941 66.4397 151.307 66.4397C153.197 66.4397 154.945 66.1883 156.552 65.6853C158.181 65.1826 159.625 64.4501 160.885 63.4882C162.145 62.5043 163.187 61.3128 164.012 59.9135C165.548 57.3769 167.933 55.1354 170.898 55.1491C175.769 55.1714 179.579 59.5425 177.384 63.8909C177.347 63.9645 177.309 64.0379 177.271 64.1113C175.816 66.9535 173.851 69.5006 171.375 71.7524C168.921 73.9825 165.989 75.7534 162.579 77.0652C159.191 78.355 155.358 79 151.079 79C145.128 79 139.807 77.6445 135.116 74.9335C130.447 72.2224 126.754 68.298 124.04 63.1602C121.347 58.0224 120 51.8022 120 44.5C120 37.1759 121.368 30.945 124.105 25.8071C126.841 20.6692 130.555 16.7557 135.246 14.0666C139.937 11.3555 145.215 10 151.079 10C154.945 10 158.529 10.5466 161.83 11.6397C165.153 12.7329 168.095 14.3289 170.658 16.4278C173.221 18.5048 175.306 21.0518 176.913 24.069C177.206 24.611 177.479 25.1671 177.734 25.7374ZM202.076 72.9001C201.078 75.9889 198.202 78.0818 194.956 78.0818C190.217 78.0818 186.885 73.4174 188.423 68.9342L205.37 19.514C207.134 14.3719 211.969 10.9183 217.405 10.9183C222.843 10.9183 227.68 14.3745 229.442 19.5192L246.364 68.9363C247.9 73.4193 244.568 78.0818 239.829 78.0818C236.581 78.0818 233.704 75.9867 232.707 72.8956L229.44 62.7667L217.668 26.2662H217.146L205.351 62.7667L202.076 72.9001ZM199.457 51.682H235.162V62.7667H229.44H205.351H199.457V51.682ZM264.579 78.0818C260.684 78.0818 257.527 74.9241 257.527 71.0288V15.9183C257.527 13.1568 259.765 10.9183 262.527 10.9183L283.85 10.9183C288.888 10.9183 293.188 11.8256 296.75 13.6402C300.334 15.433 303.059 17.98 304.928 21.2814C306.816 24.5608 307.761 28.4197 307.761 32.8579C307.761 37.318 306.806 41.1549 304.894 44.3688C302.984 47.5609 300.214 50.0095 296.587 51.7149C292.981 53.4201 288.617 54.2728 283.491 54.2728H281.93H265.866V42.8603H281.211C283.904 42.8603 286.14 42.4885 287.921 41.7452C289.702 41.0019 291.027 39.8869 291.896 38.4002C292.786 36.9135 293.232 35.0661 293.232 32.8579C293.232 30.6279 292.786 28.7476 291.896 27.2172C291.027 25.6867 289.692 24.5281 287.889 23.741C286.108 22.932 283.86 22.5276 281.146 22.5276L271.632 22.5276V71.0288C271.632 74.9241 268.475 78.0818 264.579 78.0818ZM293.558 47.5171L304.857 68.344C307.24 72.7374 304.059 78.0818 299.061 78.0818C296.296 78.0818 293.757 76.5549 292.46 74.1125L288.248 66.1773L281.93 54.2728L278.344 47.5171H293.558ZM321.043 22.626C317.81 22.626 315.189 20.0051 315.189 16.7721C315.189 13.5391 317.81 10.9183 321.043 10.9183L364.131 10.9183C367.364 10.9183 369.985 13.5391 369.985 16.7721C369.985 20.0051 367.364 22.626 364.131 22.626H349.558V71.1104C349.558 74.9606 346.437 78.0818 342.586 78.0818C338.736 78.0818 335.615 74.9606 335.615 71.1104V22.626H321.043ZM401.606 38.9577C404.667 38.9577 407.148 41.4391 407.148 44.5C407.148 47.5609 404.667 50.0423 401.606 50.0423H382.262C379.201 50.0423 376.72 47.5609 376.72 44.5C376.72 41.4391 379.201 38.9577 382.262 38.9577H401.606ZM419.77 22.626C416.537 22.626 413.916 20.0051 413.916 16.7721C413.916 13.5391 416.537 10.9183 419.77 10.9183H462.858C466.091 10.9183 468.712 13.5391 468.712 16.7721C468.712 20.0051 466.091 22.626 462.858 22.626H448.285V71.1104C448.285 74.9606 445.164 78.0818 441.313 78.0818C437.463 78.0818 434.342 74.9606 434.342 71.1104V22.626H419.77ZM536 44.5C536 51.8242 534.621 58.0552 531.863 63.1929C529.127 68.3308 525.39 72.2552 520.656 74.9662C515.943 77.6555 510.644 79 504.758 79C498.83 79 493.509 77.6445 488.795 74.9335C484.082 72.2224 480.358 68.298 477.621 63.1602C474.885 58.0224 473.516 51.8022 473.516 44.5C473.516 37.1759 474.885 30.945 477.621 25.8071C480.358 20.6692 484.082 16.7557 488.795 14.0666C493.509 11.3555 498.83 10 504.758 10C510.644 10 515.943 11.3555 520.656 14.0666C525.39 16.7557 529.127 20.6692 531.863 25.8071C534.621 30.945 536 37.1759 536 44.5ZM521.699 44.5C521.699 39.7557 520.993 35.7548 519.582 32.4972C518.191 29.2396 516.225 26.769 513.684 25.0856C511.143 23.4021 508.168 22.5604 504.758 22.5604C501.349 22.5604 498.373 23.4021 495.832 25.0856C493.291 26.769 491.315 29.2396 489.903 32.4972C488.513 35.7548 487.818 39.7557 487.818 44.5C487.818 49.2443 488.513 53.2452 489.903 56.5028C491.315 59.7605 493.291 62.231 495.832 63.9144C498.373 65.598 501.349 66.4397 504.758 66.4397C508.168 66.4397 511.143 65.598 513.684 63.9144C516.225 62.231 518.191 59.7605 519.582 56.5028C520.993 53.2452 521.699 49.2443 521.699 44.5Z" fill="#474747"/>
<path fill-rule="evenodd" clip-rule="evenodd" d="M27.9082 70.7925C23.9231 70.7925 21.0422 69.3231 19.2655 66.3845C17.4887 63.446 17.5014 60.3427 19.3035 57.0748L25.9284 45.2191L12.073 15.7533L9.63279 10.5637H5.21617C3.79472 10.5637 2.56999 10.0502 1.542 9.02313C0.513998 7.99609 0 6.76013 0 5.31525C0 3.87029 0.525268 2.6232 1.57581 1.57396C2.62642 0.524655 3.87791 0 5.33028 0L12.5264 0C13.6925 0 14.7924 0.303464 15.826 0.910387C16.8596 1.51723 17.5619 2.34109 17.9328 3.38196L20.598 9.04388L84.6003 9.04388C85.3822 9.04388 86.1065 9.08502 86.7732 9.16731C89.616 9.51816 91.4119 10.617 92.1607 12.4638C92.5728 13.4798 92.7392 14.5763 92.6602 15.7533C92.5618 17.2174 92.0835 18.8062 91.2251 20.5196L77.5565 45.2189C76.6174 46.9163 75.3728 48.2716 73.8227 49.2849C72.2727 50.2982 70.5058 50.8048 68.5222 50.8048H63.9279H34.8757L29.926 60.2288H79.4222C80.7903 60.2288 81.989 60.7422 83.0183 61.7691C84.0476 62.796 84.5622 64.0387 84.5622 65.4973C84.5622 66.9558 84.0373 68.2029 82.9873 69.2387C81.9375 70.2745 80.7111 70.7925 79.308 70.7925H27.9082Z" fill="#FF833D"/>
<rect x="70.0378" y="75.019" width="12.9811" height="12.9811" rx="6.49057" fill="#FF833D"/>
<rect x="17.2076" y="75.019" width="12.8302" height="12.9811" rx="6.4151" fill="#FF833D"/>
</svg>
