<svg width="180" height="360" viewBox="0 0 180 360" fill="none" xmlns="http://www.w3.org/2000/svg">
<path d="M128.769 179.606L6.23076 40.1751C2.07692 35.4486 0.115378 29.9344 0.346148 23.6324C0.576917 17.3304 2.76923 11.8162 6.92307 7.08972C11.0769 2.36324 16.0385 3.60702e-06 21.8077 4.11138e-06C27.5769 4.61575e-06 32.5385 2.36324 36.6923 7.08972L173.769 163.063C176.077 165.689 177.692 168.315 178.615 170.941C179.538 173.567 180 176.455 180 179.606C180 182.757 179.538 185.646 178.615 188.271C177.692 190.897 176.077 193.523 173.769 196.149L36 352.91C31.8461 357.637 26.8846 360 21.1154 360C15.3461 360 10.3846 357.637 6.23074 352.91C2.07689 348.184 -3.42362e-05 342.538 -3.36623e-05 335.974C-3.30885e-05 329.409 2.07689 323.764 6.23074 319.037L128.769 179.606Z" fill="#474747"/>
</svg>
