<svg width="45" height="57" viewBox="0 0 45 57" fill="none" xmlns="http://www.w3.org/2000/svg">
<path d="M39.375 0H5.625C2.5184 0 0 2.5184 0 5.625V50.625C0 53.7317 2.5184 56.25 5.625 56.25H39.375C42.4817 56.25 45 53.7317 45 50.625V5.625C45 2.5184 42.4817 0 39.375 0Z" fill="#737A83"/>
<path d="M35.1562 8.4375H9.84375C9.06711 8.4375 8.4375 9.06711 8.4375 9.84375V15.4688C8.4375 16.2454 9.06711 16.875 9.84375 16.875H35.1562C35.9328 16.875 36.5625 16.2454 36.5625 15.4688V9.84375C36.5625 9.06711 35.9328 8.4375 35.1562 8.4375Z" fill="#E7ECEF"/>
<path d="M14.7656 21.7969H10.5469C9.77023 21.7969 9.14062 22.4265 9.14062 23.2031V27.4219C9.14062 28.1984 9.77023 28.8281 10.5469 28.8281H14.7656C15.5423 28.8281 16.1719 28.1984 16.1719 27.4219V23.2031C16.1719 22.4265 15.5423 21.7969 14.7656 21.7969Z" fill="white"/>
<path d="M24.6094 21.7969H20.3906C19.6141 21.7969 18.9844 22.4265 18.9844 23.2031V27.4219C18.9844 28.1984 19.6141 28.8281 20.3906 28.8281H24.6094C25.3859 28.8281 26.0156 28.1984 26.0156 27.4219V23.2031C26.0156 22.4265 25.3859 21.7969 24.6094 21.7969Z" fill="white"/>
<path d="M34.4805 21.7969H30.2617C29.4849 21.7969 28.8555 22.4265 28.8555 23.2031V27.4219C28.8555 28.1984 29.4849 28.8281 30.2617 28.8281H34.4805C35.257 28.8281 35.8867 28.1984 35.8867 27.4219V23.2031C35.8867 22.4265 35.257 21.7969 34.4805 21.7969Z" fill="#FFBD81"/>
<path d="M14.7656 31.6406H10.5469C9.77023 31.6406 9.14062 32.2703 9.14062 33.0469V37.2656C9.14062 38.0422 9.77023 38.6719 10.5469 38.6719H14.7656C15.5423 38.6719 16.1719 38.0422 16.1719 37.2656V33.0469C16.1719 32.2703 15.5423 31.6406 14.7656 31.6406Z" fill="white"/>
<path d="M24.6094 31.6406H20.3906C19.6141 31.6406 18.9844 32.2703 18.9844 33.0469V37.2656C18.9844 38.0422 19.6141 38.6719 20.3906 38.6719H24.6094C25.3859 38.6719 26.0156 38.0422 26.0156 37.2656V33.0469C26.0156 32.2703 25.3859 31.6406 24.6094 31.6406Z" fill="white"/>
<path d="M34.4805 31.6406H30.2617C29.4849 31.6406 28.8555 32.2703 28.8555 33.0469V37.2656C28.8555 38.0422 29.4849 38.6719 30.2617 38.6719H34.4805C35.257 38.6719 35.8867 38.0422 35.8867 37.2656V33.0469C35.8867 32.2703 35.257 31.6406 34.4805 31.6406Z" fill="#FFBD81"/>
<path d="M14.7656 41.4844H10.5469C9.77023 41.4844 9.14062 42.1141 9.14062 42.8906V47.1094C9.14062 47.8859 9.77023 48.5156 10.5469 48.5156H14.7656C15.5423 48.5156 16.1719 47.8859 16.1719 47.1094V42.8906C16.1719 42.1141 15.5423 41.4844 14.7656 41.4844Z" fill="white"/>
<path d="M24.6094 41.4844H20.3906C19.6141 41.4844 18.9844 42.1141 18.9844 42.8906V47.1094C18.9844 47.8859 19.6141 48.5156 20.3906 48.5156H24.6094C25.3859 48.5156 26.0156 47.8859 26.0156 47.1094V42.8906C26.0156 42.1141 25.3859 41.4844 24.6094 41.4844Z" fill="white"/>
<path d="M34.4805 41.4844H30.2617C29.4849 41.4844 28.8555 42.1141 28.8555 42.8906V47.1094C28.8555 47.8859 29.4849 48.5156 30.2617 48.5156H34.4805C35.257 48.5156 35.8867 47.8859 35.8867 47.1094V42.8906C35.8867 42.1141 35.257 41.4844 34.4805 41.4844Z" fill="#FFBD81"/>
</svg>
