<svg width="50" height="40" viewBox="0 0 50 40" fill="none" xmlns="http://www.w3.org/2000/svg">
<path d="M45 7.49957H5C2.23857 7.49957 0 9.73815 0 12.4996V34.9996C0 37.7611 2.23857 39.9996 5 39.9996H45C47.7615 39.9996 50 37.7611 50 34.9996V12.4996C50 9.73815 47.7615 7.49957 45 7.49957Z" fill="#737A83"/>
<path d="M40.0008 7.5H10.0008L15.0008 0H35.0008L40.0008 7.5Z" fill="#737A83"/>
<path d="M24.9982 33.7504C31.2114 33.7504 36.2482 28.7137 36.2482 22.5004C36.2482 16.2872 31.2114 11.2504 24.9982 11.2504C18.785 11.2504 13.7482 16.2872 13.7482 22.5004C13.7482 28.7137 18.785 33.7504 24.9982 33.7504Z" fill="#C7CED5"/>
<path d="M25 28.7491C28.4517 28.7491 31.25 25.9508 31.25 22.4991C31.25 19.0473 28.4517 16.2491 25 16.2491C21.5482 16.2491 18.75 19.0473 18.75 22.4991C18.75 25.9508 21.5482 28.7491 25 28.7491Z" fill="#737A83"/>
</svg>
