<svg width="54" height="51" viewBox="0 0 54 51" fill="none" xmlns="http://www.w3.org/2000/svg">
<path d="M11.3332 33.9996H2.83331C1.26853 33.9996 0 35.268 0 36.8329V48.1661C0 49.7309 1.26853 50.9994 2.83331 50.9994H11.3332C12.898 50.9994 14.1665 49.7309 14.1665 48.1661V36.8329C14.1665 35.268 12.898 33.9996 11.3332 33.9996Z" fill="#48BA4D"/>
<path d="M31.1659 17.0004H22.6659C21.1012 17.0004 19.8326 18.2689 19.8326 19.8337V48.1667C19.8326 49.7316 21.1012 51 22.6659 51H31.1659C32.7307 51 33.9992 49.7316 33.9992 48.1667V19.8337C33.9992 18.2689 32.7307 17.0004 31.1659 17.0004Z" fill="#48BA4D"/>
<path d="M51.0008 0H42.5008C40.936 0 39.6675 1.26853 39.6675 2.83331V48.1662C39.6675 49.731 40.936 50.9995 42.5008 50.9995H51.0008C52.5656 50.9995 53.8341 49.731 53.8341 48.1662V2.83331C53.8341 1.26853 52.5656 0 51.0008 0Z" fill="#48BA4D"/>
</svg>
