<svg width="123" height="128" viewBox="0 0 123 128" fill="none" xmlns="http://www.w3.org/2000/svg">
<path d="M81.2 0H11.6C5.19349 0 0 5.19349 0 11.6V104.4C0 110.807 5.19349 116 11.6 116H81.2C87.6067 116 92.8 110.807 92.8 104.4V11.6C92.8 5.19349 87.6067 0 81.2 0Z" fill="#E7ECEF"/>
<path d="M46.4 52.2C54.4081 52.2 60.9 45.7081 60.9 37.7C60.9 29.6919 54.4081 23.2 46.4 23.2C38.3919 23.2 31.9 29.6919 31.9 37.7C31.9 45.7081 38.3919 52.2 46.4 52.2Z" fill="#474747"/>
<path d="M34.8 58H58C61.0763 58 64.0268 59.2221 66.2024 61.3976C68.378 63.5732 69.6 66.5237 69.6 69.6V87C69.6 88.5382 68.9887 90.0137 67.9012 91.1012C66.8137 92.1887 65.3382 92.8 63.8 92.8H29C27.4617 92.8 25.9864 92.1887 24.8987 91.1012C23.811 90.0137 23.2 88.5382 23.2 87V69.6C23.2 66.5237 24.4221 63.5732 26.5975 61.3976C28.773 59.2221 31.7235 58 34.8 58Z" fill="#474747"/>
<path d="M85 128C105.987 128 123 110.987 123 90C123 69.0132 105.987 52 85 52C64.0132 52 47 69.0132 47 90C47 110.987 64.0132 128 85 128Z" fill="#7AD7B5"/>
<path fill-rule="evenodd" clip-rule="evenodd" d="M105.935 81.3223L82.7018 107.131L65.7861 90.1197L72.5227 83.421L82.3587 93.3132L98.8739 74.9664L105.935 81.3223Z" fill="white"/>
</svg>
