<svg width="177" height="170" viewBox="0 0 177 170" fill="none" xmlns="http://www.w3.org/2000/svg">
<defs>
<radialGradient id="paint0_radial_67_740" cx="0" cy="0" r="1" gradientUnits="userSpaceOnUse" gradientTransform="translate(88.1932 85) scale(86.6113 86.6114)">
<stop offset="0.5" stop-color="#FDE030"/>
<stop offset="0.92" stop-color="#F7C02B"/>
<stop offset="1" stop-color="#F4A223"/>
</radialGradient>
</defs>
<path d="M88.1932 170C45.7692 170 0 143.39 0 85C0 26.61 45.7692 0 88.1932 0C111.762 0 133.506 7.75492 149.624 21.8962C167.111 37.4061 176.386 59.3023 176.386 85C176.386 110.698 167.111 132.442 149.624 147.952C133.506 162.093 111.61 170 88.1932 170Z" fill="url(#paint0_radial_67_740)"/>
<path d="M161.014 34.4723C169.119 47.5492 173.346 63.1199 173.346 80.4392C173.346 106.137 164.07 127.881 146.584 143.391C130.466 157.532 108.569 165.439 85.1526 165.439C57.691 165.439 28.8914 154.263 11.8914 130.557C28.2527 157.411 59.0291 170.001 88.1937 170.001C111.611 170.001 133.507 162.094 149.625 147.953C167.111 132.443 176.387 110.699 176.387 85.0009C176.387 65.6288 171.111 48.4159 161.014 34.4723Z" fill="#EB8F00"/>
<path d="M99.4464 142.934C98.5796 142.934 97.7129 142.751 96.9222 142.387C91.3265 139.908 84.9553 139.862 79.3444 142.295C76.3489 143.801 72.6843 142.584 71.1789 139.589C69.6735 136.593 70.89 132.929 73.8855 131.423C82.8113 127.378 93.0143 127.348 101.971 131.317C105.027 132.716 106.38 136.319 104.981 139.376C103.993 141.55 101.834 142.934 99.4464 142.934Z" fill="#422B0D"/>
<path d="M56.8697 61.8885C71.4367 61.9342 83.2212 73.7794 83.1755 88.3465C83.1299 102.914 71.2847 114.698 56.7176 114.652C42.1505 114.607 30.3661 102.762 30.4117 88.1945C30.5029 73.6426 42.3178 61.9038 56.8697 61.8885Z" fill="white"/>
<path d="M56.4136 108.266C69.3464 108.266 79.8305 97.7816 79.8305 84.8488C79.8305 71.9161 69.3464 61.432 56.4136 61.432C43.4809 61.432 32.9968 71.9161 32.9968 84.8488C32.9968 97.7816 43.4809 108.266 56.4136 108.266Z" fill="#422B0D"/>
<path d="M67.008 96.4952C68.6803 95.0914 68.9855 92.7021 67.6898 91.1584C66.394 89.6148 63.9879 89.5013 62.3156 90.9051C60.6433 92.3088 60.3381 94.6982 61.6338 96.2418C62.9296 97.7855 65.3357 97.8989 67.008 96.4952Z" fill="white"/>
<path d="M56.9488 86.4741C63.0119 81.9612 64.9596 74.316 61.2991 69.3982C57.6386 64.4803 49.7561 64.1521 43.693 68.665C37.6299 73.178 35.6822 80.8231 39.3427 85.741C43.0032 90.6588 50.8857 90.9871 56.9488 86.4741Z" fill="white"/>
<path d="M122.254 61.8885C136.821 61.9342 148.606 73.7794 148.56 88.3465C148.514 102.914 136.669 114.698 122.102 114.652C107.535 114.607 95.7505 102.762 95.7962 88.1945C95.8874 73.6426 107.702 61.9038 122.254 61.8885Z" fill="white"/>
<path d="M121.798 108.266C134.731 108.266 145.215 97.7816 145.215 84.8488C145.215 71.9161 134.731 61.432 121.798 61.432C108.866 61.432 98.3816 71.9161 98.3816 84.8488C98.3816 97.7816 108.866 108.266 121.798 108.266Z" fill="#422B0D"/>
<path d="M132.514 96.4012C134.187 94.9975 134.492 92.6081 133.196 91.0644C131.9 89.5208 129.494 89.4073 127.822 90.8111C126.15 92.2148 125.844 94.6042 127.14 96.1478C128.436 97.6915 130.842 97.8049 132.514 96.4012Z" fill="white"/>
<path d="M122.35 86.4851C128.413 81.9722 130.36 74.327 126.7 69.4092C123.039 64.4913 115.157 64.1631 109.094 68.676C103.031 73.189 101.083 80.8341 104.744 85.752C108.404 90.6698 116.287 90.9981 122.35 86.4851Z" fill="white"/>
<path d="M33.1485 49.8751C29.8032 50.4834 29.6512 55.3492 33.3005 55.5012C41.3596 55.6077 49.1449 52.6122 55.0447 47.1381C57.2952 45.1918 59.1959 42.8805 60.6709 40.2955C61.5528 39.0334 61.2487 37.3 59.9866 36.4181C58.7245 35.5361 56.9911 35.8402 56.1091 37.1023L55.9571 37.2544C49.9964 43.9145 41.9526 48.3698 33.1485 49.8751Z" fill="#422B0D"/>
<path d="M119.973 37.1022C119.091 35.8401 117.358 35.536 116.096 36.4179C114.834 37.2999 114.529 39.0333 115.411 40.2954C116.886 42.8804 118.787 45.1916 121.038 47.138C126.968 52.5664 134.738 55.5619 142.782 55.5011C146.583 55.3491 146.279 50.4832 142.934 49.875C134.023 48.4153 125.919 43.8992 119.973 37.1022Z" fill="#422B0D"/>
</svg>
