<svg width="105" height="106" viewBox="0 0 105 106" fill="none" xmlns="http://www.w3.org/2000/svg">
<defs>
<radialGradient id="paint0_radial_67_587" cx="0" cy="0" r="1" gradientUnits="userSpaceOnUse" gradientTransform="translate(52.7413 50.8312) scale(51.3214 51.3214)">
<stop offset="0.5" stop-color="#FDE030"/>
<stop offset="0.92" stop-color="#F7C02B"/>
<stop offset="1" stop-color="#F4A223"/>
</radialGradient>
<linearGradient id="paint1_linear_67_587" x1="52.7413" y1="101.198" x2="52.7413" y2="0.4646" gradientUnits="userSpaceOnUse">
<stop stop-color="#F4A223"/>
<stop offset="0.08" stop-color="#F7C02B"/>
<stop offset="0.54" stop-color="#FDE030" stop-opacity="0"/>
</linearGradient>
<radialGradient id="paint2_radial_67_587" cx="0" cy="0" r="1" gradientUnits="userSpaceOnUse" gradientTransform="translate(32.7839 69.4049) scale(53.5488 50.3359)">
<stop offset="0.27" stop-color="#FFF176"/>
<stop offset="1" stop-color="#FFC400"/>
</radialGradient>
</defs>
<path d="M52.7413 101.198C27.6031 101.198 0.482666 85.43 0.482666 50.8311C0.482666 16.2323 27.6031 0.4646 52.7413 0.4646C66.707 0.4646 79.5915 5.05976 89.1422 13.4392C99.5038 22.6295 105 35.6041 105 50.8311C105 66.0582 99.5038 78.9427 89.1422 88.133C79.5915 96.5124 66.6169 101.198 52.7413 101.198Z" fill="url(#paint0_radial_67_587)"/>
<path d="M52.7413 101.198C27.6031 101.198 0.482666 85.43 0.482666 50.8311C0.482666 16.2323 27.6031 0.4646 52.7413 0.4646C66.707 0.4646 79.5915 5.05976 89.1422 13.4392C99.5038 22.6295 105 35.6041 105 50.8311C105 66.0582 99.5038 78.9427 89.1422 88.133C79.5915 96.5124 66.6169 101.198 52.7413 101.198Z" fill="url(#paint1_linear_67_587)"/>
<path d="M95.8908 20.8905C100.693 28.6392 103.198 37.8656 103.198 48.1281C103.198 63.3552 97.7018 76.2396 87.3402 85.43C77.7894 93.8094 64.8149 98.4946 50.9393 98.4946C34.667 98.4946 17.6019 91.8722 7.52856 77.8254C17.2234 93.7373 35.4599 101.198 52.7413 101.198C66.6169 101.198 79.5915 96.5124 89.1422 88.133C99.5038 78.9427 105 66.0582 105 50.8311C105 39.3522 101.873 29.1528 95.8908 20.8905Z" fill="#EB8F00"/>
<path d="M1.16738 61.8236C-0.472459 63.8149 3.01446 69.1038 3.63615 71.7978C5.13183 78.3031 3.63615 79.9069 3.51902 85.6914C3.41991 92.0526 5.32105 97.4046 10.1685 100.819C14.7276 104.054 20.2238 105.712 27.2517 103.64C34.2796 101.567 38.5504 99.2787 38.9108 95.8188C39.109 94.3862 38.3521 92.9806 37.0367 92.3679C37.7394 92.0345 38.2981 91.4669 38.6134 90.7551C40.2893 86.7546 36.9466 85.9077 36.9466 85.9077C37.4061 85.358 37.7935 84.7544 38.0998 84.1056C39.1 82.1144 38.9378 79.4114 36.0546 78.5284C34.7301 78.1229 34.3697 78.3392 34.3697 78.3392C35.7392 76.9336 37.379 75.8073 39.1901 75.0505C44.0375 72.9691 49.786 71.7077 51.2186 70.4914C53.2999 68.6893 53.4261 65.2204 49.7499 64.1843C44.47 62.6345 34.7571 66.2386 28.8465 69.9958C22.9358 73.753 17.5117 75.7803 15.7097 75.0955C13.9077 74.4108 12.7904 73.2935 12.1057 70.5905C10.8352 65.5628 9.85313 63.6166 7.69972 61.7335C5.91571 60.2018 2.4288 60.2919 1.16738 61.8236Z" fill="url(#paint2_radial_67_587)"/>
<path d="M53.2729 66.581C52.6692 58.3278 36.415 63.4275 28.1166 68.8606C17.8001 75.6182 16.2864 74.4198 15.2772 73.7891C14.0609 73.0323 13.295 72.4016 12.7003 70.0589C11.3578 64.761 10.9884 62.8148 8.57369 60.7064C6.55543 58.8413 0.473598 58.8864 0.0681428 61.8417C-0.373353 65.0223 1.42867 65.6169 2.64504 71.7348C4.14973 77.9338 3.54605 84.7815 3.54605 84.7815C3.54605 84.7815 6.3572 78.2491 3.65417 68.0677C3.10455 65.3196 0.491619 61.1119 4.90658 61.5894C9.17737 62.0489 9.45668 65.7701 10.7902 70.9149C11.529 73.8252 12.2859 75.5371 15.2232 76.348C18.1424 77.1499 24.891 73.4017 29.7385 70.3202C35.6761 66.545 44.479 63.2473 49.1012 64.5988C51.1014 65.0313 52.4349 67.6172 50.3356 69.4462C47.0018 72.5908 34.1804 74.0054 26.4588 82.3577C26.4588 82.3577 27.3958 82.7001 28.8014 82.0063C30.216 81.3126 35.4959 78.6996 35.4959 78.6996C37.0727 79.3664 37.8295 81.9883 36.9736 83.3849C35.586 85.6464 30.189 88.7729 27.4949 88.6378C27.4949 88.6378 27.4499 90.0163 30.1529 89.6469C31.0089 89.5298 34.5499 88.7549 37.0276 86.8358C38.8747 88.1693 38.3521 90.4398 36.9646 92.0797C35.586 93.7105 32.2162 95.8189 28.7473 96.1883C28.7473 96.1883 28.405 97.5037 30.7386 97.4767C33.0722 97.4497 35.604 96.2604 37.4691 94.8097C37.7485 95.2512 38.0097 96.2153 37.6944 97.5398C37.2078 99.5851 34.4598 101.657 29.1528 102.811C24.2603 103.874 18.7461 104.622 8.10517 99.0985C8.10517 99.0985 12.0786 104.261 22.4493 105.18C32.3964 106.063 44.0105 101.657 39.3523 92.8185C39.3523 92.8185 40.3614 91.3228 40.4875 89.2685C40.5776 87.8629 40.1361 85.9438 39.1 85.0698C40.0731 82.2046 39.7667 80.2223 39.145 79.051C38.7305 78.2762 37.6854 77.5193 37.6854 77.5193C37.6854 77.5193 39.7487 75.6542 45.8305 74.0865C49.7319 73.0683 53.6423 71.6267 53.2729 66.581Z" fill="#EB8F00"/>
<path d="M12.2318 68.1577C12.2318 68.1577 16.5837 75.2397 26.1705 70.1039C26.1705 70.1039 20.2869 76.2758 15.7097 75.0955C11.1326 73.9152 12.2318 68.1577 12.2318 68.1577Z" fill="#EB8F00"/>
<path d="M39.5865 80.2403C39.5865 80.2403 41.803 75.4829 45.8395 74.0684C45.8395 74.0684 39.2802 74.627 36.7844 77.321L39.5865 80.2403Z" fill="#EB8F00"/>
<path d="M64.6979 58.4083C64.4096 58.3543 64.1393 58.2372 63.914 58.0479C59.8505 54.7863 55.003 52.6599 49.8582 51.867C44.7135 50.975 39.4335 51.4615 34.541 53.2726C34.2707 53.3807 33.9824 53.4167 33.6941 53.3717C33.0634 53.2636 32.5498 52.795 32.3786 52.1733C32.2074 51.5607 32.4147 50.9119 32.9012 50.5065C42.4519 42.5776 56.6158 43.893 64.5447 53.4438C65.1935 54.2277 65.7881 55.0566 66.3287 55.9125C66.6711 56.4441 66.6711 57.1289 66.3287 57.6605C65.9773 58.2101 65.3376 58.4984 64.6979 58.4083Z" fill="#422B0D"/>
<path d="M68.2119 22.1877C71.9871 22.1877 75.42 25.3773 75.42 30.6753C75.42 35.9732 71.9871 39.1538 68.2119 39.1538C64.4366 39.1538 61.0038 35.9642 61.0038 30.6753C61.0038 25.3863 64.4366 22.1877 68.2119 22.1877Z" fill="#422B0D"/>
<path d="M37.0098 13.9795C33.2346 13.9795 29.8017 17.1691 29.8017 22.458C29.8017 27.7469 33.2346 30.9455 37.0098 30.9455C40.794 30.9455 44.2179 27.756 44.2179 22.458C44.2179 17.1601 40.794 13.9795 37.0098 13.9795Z" fill="#422B0D"/>
<path d="M31.2343 3.7351C30.8288 3.06835 30.7748 2.23942 31.0901 1.52762C31.4325 0.815821 32.1083 0.329274 32.8922 0.230163C37.8027 -0.535697 42.8123 0.626608 46.8849 3.46479C48.4076 4.50997 49.7591 5.77138 50.9034 7.22201C50.9755 7.31211 51.0385 7.41123 51.1016 7.51935C51.7143 8.47442 51.5071 9.73584 50.6241 10.4476C49.678 11.2315 48.2905 11.2045 47.3804 10.3756L47.7589 9.76287L47.2993 10.3035C43.3529 7.00577 38.4154 5.12266 33.2796 4.96948C32.4236 4.96948 31.6307 4.51898 31.1983 3.78015L31.2343 3.7351Z" fill="#422B0D"/>
<path d="M79.2312 19.8542C79.898 19.4848 80.3485 18.809 80.4386 18.0522C80.4926 17.2683 80.1593 16.5115 79.5376 16.0339C75.6362 12.9254 70.6806 11.4388 65.716 11.9073C63.878 12.0605 62.0759 12.493 60.364 13.1867L60.0397 13.3399C59.0395 13.8715 58.598 15.0698 59.0125 16.124C59.454 17.2683 60.6524 17.917 61.8507 17.6558V16.9349L61.9768 17.6377C67.0225 16.7007 72.2394 17.4846 76.7895 19.8632C77.5373 20.2867 78.4473 20.2867 79.1952 19.8632L79.2312 19.8542Z" fill="#422B0D"/>
<path d="M36.8476 16.8177C35.9196 16.169 34.523 16.3762 33.622 17.6737C32.721 18.9801 33.0183 20.3497 33.9463 20.9984C34.8744 21.6471 36.271 21.4399 37.172 20.1425C38.073 18.836 37.7756 17.4664 36.8476 16.8177Z" fill="#896024"/>
<path d="M68.0316 24.5305C67.1036 23.8818 65.707 24.089 64.806 25.3864C63.905 26.6929 64.2023 28.0625 65.1304 28.7112C66.0584 29.3599 67.455 29.1527 68.356 27.8552C69.266 26.5488 68.9687 25.1792 68.0316 24.5305Z" fill="#896024"/>
</svg>
