<svg width="117" height="114" viewBox="0 0 117 114" fill="none" xmlns="http://www.w3.org/2000/svg">
<defs>
<radialGradient id="paint0_radial_67_613" cx="0" cy="0" r="1" gradientUnits="userSpaceOnUse" gradientTransform="translate(58.5 57.2431) scale(57.4507 57.4507)">
<stop offset="0.5" stop-color="#FDE030"/>
<stop offset="0.92" stop-color="#F7C02B"/>
<stop offset="1" stop-color="#F4A223"/>
</radialGradient>
</defs>
<path d="M58.5 113.625C30.3595 113.625 0 95.9741 0 57.2431C0 18.5121 30.3595 0.861206 58.5 0.861206C74.1336 0.861206 88.5569 6.00517 99.2483 15.3853C110.847 25.6733 117 40.1974 117 57.2431C117 74.2888 110.847 88.7121 99.2483 99C88.5569 108.38 74.0328 113.625 58.5 113.625Z" fill="url(#paint0_radial_67_613)"/>
<path d="M106.803 23.7267C112.179 32.4008 114.983 42.7291 114.983 54.2173C114.983 71.263 108.83 85.6863 97.231 95.9742C86.5397 105.354 72.0155 110.599 56.4828 110.599C38.2671 110.599 19.1638 103.186 7.88742 87.4614C18.7402 105.274 39.1547 113.625 58.5 113.625C74.0328 113.625 88.5569 108.38 99.2483 99.0001C110.847 88.7121 117 74.2888 117 57.2432C117 44.3933 113.5 32.9757 106.803 23.7267Z" fill="#EB8F00"/>
<path d="M72.6207 86.9974C72.6207 94.1284 66.8413 99.9078 59.7103 99.9078C52.5794 99.9078 46.8 94.1284 46.8 86.9974C46.8 79.8665 52.5794 74.0871 59.7103 74.0871C66.8211 74.0669 72.6005 79.806 72.6207 86.9167C72.6207 86.947 72.6207 86.9672 72.6207 86.9974Z" fill="#422B0D"/>
<path d="M37.3896 41.1455C33.1635 41.1455 29.3206 44.716 29.3206 50.6467C29.3206 56.5774 33.1635 60.1378 37.3896 60.1378C41.6157 60.1378 45.4585 56.5673 45.4585 50.6467C45.4585 44.7261 41.6157 41.1455 37.3896 41.1455Z" fill="#422B0D"/>
<path d="M36.9962 45.1094C35.564 44.4236 33.8392 45.0288 33.1433 46.461C32.6087 47.5806 32.8508 48.922 33.7485 49.7894C35.1807 50.4753 36.9054 49.8701 37.6014 48.4379C38.136 47.3183 37.8939 45.9769 36.9962 45.1094Z" fill="#896024"/>
<path d="M81.0931 41.1455C76.867 41.1455 73.0241 44.716 73.0241 50.6467C73.0241 56.5774 76.867 60.1378 81.0931 60.1378C85.3192 60.1378 89.1621 56.5673 89.1621 50.6467C89.1621 44.7261 85.3394 41.1455 81.0931 41.1455Z" fill="#422B0D"/>
<path d="M80.7199 45.1094C79.2877 44.4236 77.5629 45.0288 76.867 46.461C76.3324 47.5806 76.5745 48.922 77.4722 49.7894C78.9044 50.4753 80.6291 49.8701 81.3251 48.4379C81.8597 47.3183 81.6176 45.9769 80.7199 45.1094Z" fill="#896024"/>
<path d="M23.2991 32.1284C22.5931 32.8647 21.413 32.895 20.6767 32.1789C20.011 31.5434 19.9203 30.5046 20.4548 29.7582C21.5946 28.1141 22.9966 26.6819 24.6104 25.5018C28.8365 22.244 34.1317 20.7008 39.4472 21.1849C41.9586 21.4976 41.4644 24.705 39.2354 24.9168C33.2441 25.3909 27.606 27.9427 23.2991 32.1284Z" fill="#422B0D"/>
<path d="M94.9818 32.3605C95.6878 33.0968 96.8679 33.127 97.6042 32.4109C98.2699 31.7755 98.3607 30.7366 97.8261 29.9902C96.7065 28.3663 95.3146 26.9442 93.721 25.7843C89.4949 22.5264 84.1996 20.9832 78.8842 21.4775C76.3828 21.7901 76.867 24.9875 79.096 25.1993C85.0671 25.6733 90.675 28.205 94.9818 32.3605Z" fill="#422B0D"/>
</svg>
