<svg width="185" height="189" viewBox="0 0 185 189" fill="none" xmlns="http://www.w3.org/2000/svg">
<path d="M3.77769 187.102C7.33869 190.961 22.0062 184.231 33.5834 178.834C42.2585 174.803 76.9743 160.559 94.2303 153.17C98.8894 151.178 105.666 148.574 110.545 142.158C114.875 136.448 126.358 112.195 103.235 87.6289C79.7666 62.6862 55.5926 69.5729 46.5568 75.9733C41.2388 79.7382 36.9091 88.225 34.9639 92.539C26.7438 110.768 15.0254 144.166 10.2565 157.296C6.75826 166.975 0.248061 183.274 3.77769 187.102Z" fill="#FFC107"/>
<path d="M32.6394 98.0294C32.8591 100.759 33.4081 105.198 35.2906 113.748C36.5769 119.615 38.679 125.764 40.3889 129.827C45.5187 142.048 52.7191 146.974 60.0137 150.927C72.4066 157.641 80.8306 158.896 80.8306 158.896L70.728 163.022C70.728 163.022 64.61 161.751 56.2644 157.641C48.311 153.719 40.0281 147.083 33.9729 134.094C31.3531 128.463 29.8314 123.003 28.9529 118.674C27.8705 113.309 27.698 110.265 27.698 110.265L32.6394 98.0294Z" fill="#FF8F00"/>
<path d="M20.2324 129.844C20.2324 129.844 21.4873 140.025 29.8957 152.873C39.7473 167.901 53.505 170.364 53.505 170.364L44.3593 174.129C44.3593 174.129 34.1469 171.007 24.4365 157.751C18.3813 149.484 16.687 139.601 16.687 139.601L20.2324 129.844Z" fill="#FF8F00"/>
<path d="M11.5288 153.97C11.5288 153.97 13.8191 162.755 18.839 169.312C24.8158 177.14 32.4241 179.414 32.4241 179.414L25.412 182.52C25.412 182.52 20.094 181.407 14.274 174.034C9.85022 168.433 8.59525 162.002 8.59525 162.002L11.5288 153.97Z" fill="#FF8F00"/>
<g opacity="0.44">
<path d="M7.71295 176.278C7.39921 175.572 7.39921 174.772 7.72864 174.081L47.684 91.2214L54.257 115.929L12.2152 176.654C11.0857 178.348 8.54437 178.129 7.71295 176.278Z" fill="#FFFDE7"/>
</g>
<path d="M57.4274 124.228C76.0952 146.064 97.3514 143.335 104.426 137.813C111.517 132.275 117.117 113.247 98.5279 91.7708C79.0444 69.2753 56.9881 75.6914 51.8898 80.5544C46.7914 85.4175 40.2969 104.195 57.4274 124.228Z" fill="url(#paint0_linear_67_643)"/>
<path d="M121.541 133.217C114.733 127.507 111.109 128.526 106.246 130.55C99.9708 133.154 90.1036 135.084 76.7067 130.55L80.7383 120.84C88.6917 123.522 94.4489 122.22 99.4218 119.287C105.822 115.522 114.576 110.361 128.192 121.797C133.871 126.565 139.691 129.734 143.958 128.291C147.064 127.256 148.711 122.628 149.542 118.941C149.621 118.612 149.746 117.671 149.841 116.839C150.594 111.082 151.848 98.6579 161.104 92.3045C171.003 85.512 181.403 85.512 181.403 85.512L183.286 104.211C178.501 103.505 175.175 104.478 172.367 106.031C161.794 111.914 171.003 134.503 154.547 142.096C138.718 149.453 125.776 136.762 121.541 133.217Z" fill="#03A9F4"/>
<path d="M63.3079 109.371L56.4996 103.269C69.0023 89.3074 65.708 79.0479 63.3079 71.5808C62.8216 70.0749 62.3666 68.6473 62.0686 67.2825C61.0018 62.4509 60.7822 58.2467 61.1117 54.5759C56.3114 48.599 54.1936 42.3398 54.0524 41.9163C51.1346 33.0844 53.3308 24.4721 58.3664 16.3932C68.5474 0 86.9799 0 86.9799 0L93.1293 16.4559C88.4545 16.2677 73.1281 16.503 68.4219 23.923C62.4764 33.2726 66.3826 39.0455 66.6649 39.7044C67.8101 38.2141 68.971 37.0219 70.0063 36.0963C77.5205 29.4292 84.0464 28.4723 88.2035 28.8488C92.8783 29.2724 97.1138 31.6255 100.141 35.4845C103.451 39.7201 104.816 45.2263 103.765 50.2305C102.746 55.1092 99.4983 59.235 94.6196 61.8547C86.1014 66.4354 79.0108 65.8079 74.2576 64.2235C74.2889 64.3333 74.3046 64.4588 74.336 64.5686C74.5085 65.353 74.8537 66.4511 75.2615 67.7218C78.0382 76.3184 83.1993 89.9663 63.3079 109.371ZM74.838 50.4972C75.7478 51.156 76.7048 51.7051 77.6931 52.0973C80.9874 53.415 84.5798 52.9758 88.6584 50.7796C91.0586 49.4932 91.3409 48.1127 91.4351 47.6578C91.7174 46.293 91.2468 44.5517 90.2272 43.2497C89.333 42.1045 88.2976 41.5084 87.0583 41.3829C84.7053 41.179 81.5207 42.6693 78.3362 45.5086C76.8146 46.8734 75.6537 48.552 74.838 50.4972Z" fill="#F44336"/>
<path d="M90.5564 111.928L80.8146 111.662C80.8146 111.662 85.4424 85.5268 100.424 81.1344C103.232 80.3186 106.306 79.4872 109.397 79.0323C111.232 78.7499 114.134 78.3263 115.562 77.793C115.891 75.3301 114.856 72.1926 113.695 68.6316C112.785 65.8707 111.844 63.0313 111.342 59.9252C110.369 53.8699 111.985 48.5206 115.891 44.8341C120.66 40.3632 128.363 38.9357 137.053 40.9123C142.011 42.0418 145.666 44.4733 148.882 46.6068C153.478 49.6658 156.16 51.2188 161.776 47.4382C168.569 42.8575 159.69 24.927 154.968 14.5734L172.585 7.23181C174.954 12.4086 186.39 39.0455 178.844 54.2464C176.303 59.3605 171.926 62.7489 166.185 64.0196C153.698 66.8119 146.387 61.9489 141.054 58.4036C138.528 56.725 136.316 55.4073 133.916 54.7171C117.24 49.9638 140.52 74.4987 129.618 85.5268C123.076 92.1311 107.091 93.8724 106.055 94.1234C95.7646 96.602 90.5564 111.928 90.5564 111.928Z" fill="#F48FB1"/>
<path d="M61.0997 54.5759C60.8017 58.0271 60.6605 60.0821 61.5546 64.5687C65.8686 67.7375 75.2653 67.7375 75.2653 67.7375C74.8574 66.4668 74.4966 65.3687 74.3397 64.5844C74.3084 64.4746 74.2927 64.3491 74.2613 64.2393C64.7078 59.4703 61.0997 54.5759 61.0997 54.5759Z" fill="#C92B27"/>
<path d="M41.5565 70.0287L25.3359 62.0752L33.4148 50.4039L46.1371 58.828L41.5565 70.0287Z" fill="#FFC107"/>
<path d="M17.6481 48.0035C9.36528 46.8897 0.925546 39.8619 0 39.0618L8.14167 29.5083C10.6046 31.5947 15.8284 35.093 19.3267 35.5636L17.6481 48.0035Z" fill="#FB8C00"/>
<path d="M32.2706 27.0912L20.3483 23.185C21.7131 19.0122 22.0739 14.51 21.368 10.1646L33.7609 8.17236C34.7806 14.4786 34.2629 21.0202 32.2706 27.0912Z" fill="#03A9F4"/>
<path d="M118.985 15.0835L106.726 17.7654L110.266 33.9484L122.525 31.2665L118.985 15.0835Z" fill="#FB8C00"/>
<path d="M137.136 21.601L128.508 12.4867C133.026 8.20411 134.062 2.60376 134.062 2.54102L146.455 4.56467C146.298 5.55296 144.713 14.4319 137.136 21.601Z" fill="#FFC107"/>
<path d="M152.894 66.5119L141.934 69.9373L145.677 81.916L156.638 78.4906L152.894 66.5119Z" fill="#FB8C00"/>
<path d="M145.123 171.037L132.651 169.563C133.185 165.123 129.875 159.68 128.965 158.472L139.005 150.942C139.758 151.93 146.299 160.982 145.123 171.037Z" fill="#F44336"/>
<path d="M180.922 155.13C176.232 154.424 171.431 154.142 166.694 154.314L166.27 141.765C171.776 141.576 177.345 141.89 182.789 142.722L180.922 155.13Z" fill="#FB8C00"/>
<path d="M172.866 163.475L164.048 172.406L176.182 184.387L185 175.456L172.866 163.475Z" fill="#F48FB1"/>
<path d="M147.208 103.441L138.141 93.0741L127.773 102.141L136.84 112.508L147.208 103.441Z" fill="#F44336"/>
<defs>
<linearGradient id="paint0_linear_67_643" x1="108.778" y1="90.7331" x2="62.0818" y2="118.751" gradientUnits="userSpaceOnUse">
<stop offset="0.0235" stop-color="#8F4700"/>
<stop offset="1" stop-color="#703E2D"/>
</linearGradient>
</defs>
</svg>
