<svg width="84" height="83" viewBox="0 0 84 83" fill="none" xmlns="http://www.w3.org/2000/svg">
<path d="M51.8551 41.4847H83.0101C83.0101 30.4822 78.6393 19.9305 70.8596 12.1506C63.0796 4.37078 52.528 0 41.5255 0V31.1134C42.8854 31.1134 44.2319 31.382 45.4881 31.9037C46.7442 32.4254 47.8847 33.1899 48.8446 34.1535C49.8042 35.1172 50.5641 36.261 51.0806 37.5188C51.5975 38.777 51.8605 40.1244 51.8551 41.4847Z" fill="#5096FF"/>
<path d="M41.4845 51.8559C38.734 51.8559 36.096 50.7632 34.1512 48.8179C32.2061 46.8731 31.1134 44.2351 31.1134 41.4847C31.1134 38.7339 32.2061 36.0959 34.1512 34.1511C36.096 32.2061 38.734 31.1134 41.4845 31.1134V0C30.4822 0 19.9304 4.37078 12.1505 12.1506C4.37069 19.9305 0 30.4822 0 41.4847C0 52.4868 4.37069 63.0384 12.1505 70.8185C19.9304 78.5985 30.4822 82.9693 41.4845 82.9693C52.4862 82.9668 63.0361 78.5947 70.8141 70.8143L48.7858 48.786C47.8362 49.7601 46.7007 50.5337 45.4467 51.061C44.1926 51.5887 42.8452 51.8588 41.4845 51.8559Z" fill="#CBDFFF"/>
<path d="M51.8585 41.4843C51.8598 42.8408 51.593 44.1841 51.0732 45.4369C50.5534 46.6902 49.7909 47.8281 48.8298 48.7855L70.8581 70.8138C78.6385 63.0355 83.011 52.4855 83.013 41.4843H51.8585Z" fill="#5585CD"/>
</svg>
