<svg width="62" height="62" viewBox="0 0 62 62" fill="none" xmlns="http://www.w3.org/2000/svg">
<path d="M31 3C46.4638 3 59 15.536 59 31C59 46.4638 46.4638 59 31 59C15.536 59 3 46.4638 3 31C3 15.536 15.536 3 31 3Z" stroke="#FFFFFF" stroke-width="6"/>
<path fill-rule="evenodd" clip-rule="evenodd" d="M29.7608 20.582C27.6182 21.1634 26.4706 22.5617 26.4706 24.136H20C20 18.8527 24.0169 15.5377 28.0401 14.4459C32.0138 13.3676 37.1308 14.1191 40.1479 18.0898C41.3903 19.6824 42.0461 21.6418 41.9975 23.6514C41.9488 25.6709 41.192 27.6067 39.8629 29.1438L39.7938 29.2235L39.7198 29.2986C38.4751 30.5599 36.8021 31.3594 35.7901 31.8429C35.6164 31.9259 35.4622 31.9997 35.3327 32.0649C34.2736 32.5985 33.9555 32.8977 33.7971 33.188L33.7964 33.1974V35H27.3258V33.1717C27.3296 32.307 27.5103 31.4536 27.8556 30.6602L27.875 30.6154L27.896 30.5711C29.0182 28.1969 31.0443 27.0741 32.3827 26.3996C32.7173 26.2308 33.0085 26.0874 33.2642 25.9617C34.1655 25.5176 34.6249 25.2913 35.0007 24.9394C35.3346 24.5194 35.5163 24.0152 35.5287 23.5C35.5421 22.9517 35.363 22.4082 35.0095 21.9581L34.9906 21.9342L34.9725 21.91C33.9825 20.5994 31.945 19.9893 29.7608 20.582Z" fill="#FFFFFF"/>
<path d="M31 47C33.2091 47 35 45.2091 35 43C35 40.7907 33.2091 39 31 39C28.7909 39 27 40.7907 27 43C27 45.2091 28.7909 47 31 47Z" fill="#FFFFFF"/>
</svg>
