<svg width="93" height="116" viewBox="0 0 93 116" fill="none" xmlns="http://www.w3.org/2000/svg">
<path d="M0 23V105.014C0.16368 107.985 1.46027 110.78 3.62287 112.824C5.78553 114.868 8.64952 116.004 11.625 116H81.375C84.3504 116.004 87.2142 114.868 89.3771 112.824C91.5399 110.78 92.8361 107.985 93 105.014V23H0Z" fill="#E7ECEF"/>
<path d="M93 11.5C93 8.44997 91.7753 5.52489 89.595 3.36824C87.4148 1.21158 84.458 0 81.375 0H11.625C8.54187 0 5.585 1.21158 3.4049 3.36824C1.22475 5.52489 0 8.44997 0 11.5V23H93V11.5Z" fill="#FFC738"/>
<path d="M73.5415 41H19.4584C18.1006 41 17 42.2312 17 43.75V49.25C17 50.7686 18.1006 52 19.4584 52H73.5415C74.8996 52 76 50.7686 76 49.25V43.75C76 42.2312 74.8996 41 73.5415 41Z" fill="#C7CED5"/>
<path d="M73.5415 61H19.4584C18.1006 61 17 62.3434 17 64V70C17 71.6566 18.1006 73 19.4584 73H73.5415C74.8996 73 76 71.6566 76 70V64C76 62.3434 74.8996 61 73.5415 61Z" fill="#C7CED5"/>
<path d="M73.5415 81H19.4584C18.1006 81 17 82.3434 17 84V90C17 91.6566 18.1006 93 19.4584 93H73.5415C74.8996 93 76 91.6566 76 90V84C76 82.3434 74.8996 81 73.5415 81Z" fill="#C7CED5"/>
</svg>
