<svg width="62" height="62" viewBox="0 0 62 62" fill="none" xmlns="http://www.w3.org/2000/svg">
<circle cx="31" cy="31" r="28" stroke="#B1B8C0" stroke-width="6"/>
<path d="M27.6364 28.5455H34.5455C36.836 28.5455 39.0327 29.4555 40.6522 31.075C42.2719 32.6946 43.1818 34.8914 43.1818 37.1819V47.5455C43.1818 48.4617 42.8179 49.3403 42.17 49.9882C41.5221 50.6361 40.6434 51.0001 39.7273 51.0001H22.4545C21.5383 51.0001 20.6597 50.6361 20.0118 49.9882C19.364 49.3403 19 48.4617 19 47.5455V37.1819C19 34.8914 19.9099 32.6946 21.5295 31.075C23.1492 29.4555 25.3459 28.5455 27.6364 28.5455Z" fill="#B1B8C0"/>
<path d="M31.0913 26.8182C34.907 26.8182 38.0004 23.7249 38.0004 19.9091C38.0004 16.0933 34.907 13 31.0913 13C27.2755 13 24.1822 16.0933 24.1822 19.9091C24.1822 23.7249 27.2755 26.8182 31.0913 26.8182Z" fill="#B1B8C0"/>
</svg>
