<svg width="25" height="38" viewBox="0 0 25 38" fill="none" xmlns="http://www.w3.org/2000/svg">
<path d="M8.63636 15.5455H15.5455C17.836 15.5455 20.0327 16.4555 21.6522 18.075C23.2719 19.6946 24.1818 21.8914 24.1818 24.1819V34.5455C24.1818 35.4617 23.8179 36.3403 23.17 36.9882C22.5221 37.6361 21.6434 38.0001 20.7273 38.0001H3.45455C2.53835 38.0001 1.65967 37.6361 1.01182 36.9882C0.363954 36.3403 0 35.4617 0 34.5455V24.1819C0 21.8914 0.909893 19.6946 2.52954 18.075C4.14917 16.4555 6.34586 15.5455 8.63636 15.5455Z" fill="#B1B8C0"/>
<path d="M12.0913 13.8182C15.907 13.8182 19.0004 10.7249 19.0004 6.90909C19.0004 3.0933 15.907 0 12.0913 0C8.27549 0 5.18219 3.0933 5.18219 6.90909C5.18219 10.7249 8.27549 13.8182 12.0913 13.8182Z" fill="#B1B8C0"/>
</svg>
