<svg width="93" height="116" viewBox="0 0 93 116" fill="none" xmlns="http://www.w3.org/2000/svg">
<path d="M81.2 0H11.6C5.19349 0 0 5.19349 0 11.6V104.4C0 110.807 5.19349 116 11.6 116H81.2C87.6067 116 92.8 110.807 92.8 104.4V11.6C92.8 5.19349 87.6067 0 81.2 0Z" fill="#E7ECEF"/>
<path d="M46.4004 52.2002C54.4085 52.2002 60.9004 45.7083 60.9004 37.7002C60.9004 29.6921 54.4085 23.2002 46.4004 23.2002C38.3923 23.2002 31.9004 29.6921 31.9004 37.7002C31.9004 45.7083 38.3923 52.2002 46.4004 52.2002Z" fill="#474747"/>
<path d="M34.8002 58H58.0002C61.0765 58 64.027 59.2221 66.2026 61.3976C68.3781 63.5732 69.6002 66.5237 69.6002 69.6V87C69.6002 88.5382 68.9889 90.0137 67.9014 91.1012C66.8139 92.1887 65.3384 92.8 63.8002 92.8H29.0002C27.4619 92.8 25.9866 92.1887 24.8989 91.1012C23.8112 90.0137 23.2002 88.5382 23.2002 87V69.6C23.2002 66.5237 24.4223 63.5732 26.5977 61.3976C28.7732 59.2221 31.7237 58 34.8002 58Z" fill="#474747"/>
</svg>
