<svg width="69" height="84" viewBox="0 0 69 84" fill="none" xmlns="http://www.w3.org/2000/svg">
<path d="M4.47705 16.0001H64.477V76C64.477 80.4 60.877 84 56.477 84H12.477C8.07705 84 4.47705 80.4 4.47705 76V16.0001Z" fill="#F57C75"/>
<path d="M20.4764 30.0001V66C20.4764 67.1044 21.3719 68 22.4764 68H26.4764C27.5808 68 28.4764 67.1044 28.4764 66V30.0001C28.4764 28.8955 27.5808 28.0001 26.4764 28.0001H22.4764C21.3719 28.0001 20.4764 28.8955 20.4764 30.0001Z" fill="white"/>
<path d="M40.4767 30.0001V66C40.4767 67.1044 41.3723 68 42.4767 68H46.4767C47.5811 68 48.4767 67.1044 48.4767 66V30.0001C48.4767 28.8955 47.5811 28.0001 46.4767 28.0001H42.4767C41.3723 28.0001 40.4767 28.8955 40.4767 30.0001Z" fill="white"/>
<path d="M68.4762 8.00006H0.476257V16.0001H68.4762V8.00006Z" fill="#F57C75"/>
<path d="M18.4755 7.99999L20.2755 4.44C21.6355 1.72 24.3955 0 27.4355 0H41.5555C44.5955 0 47.3554 1.72 48.7154 4.44L50.5154 7.99999H18.5155H18.4755Z" fill="#F57C75"/>
</svg>
